<svg width="500" height="500" xmlns="http://www.w3.org/2000/svg" version="1.1">

 <g>
  <title>Layer 1</title>
  <path stroke="null" id="svg_1" fill="#AED1CA" d="m351.06465,13.90189c2.60111,0.23583 2.60111,0.23583 5.25478,0.4764c36.50645,3.45904 76.48734,15.34952 101.53019,43.6818c0,1.38783 0,2.77566 0,4.20554c1.40956,0 2.81912,0 4.2714,0c24.10933,41.25276 27.21182,83.53496 29.89979,130.37184c0.12355,2.08955 0.24708,4.17907 0.37437,6.33193c1.87416,32.42064 2.02721,64.40449 0.02608,96.8353c-0.09365,1.52672 -0.1873,3.05346 -0.28377,4.62643c-1.50108,23.91804 -3.72133,47.44973 -8.65947,70.94192c-0.29114,1.46813 -0.58228,2.93627 -0.88224,4.44888c-5.70106,28.17598 -16.55808,56.64951 -39.69605,75.45644c-22.49716,14.41965 -45.17543,21.44999 -71.54802,25.72148c-4.20137,0.68353 -8.39836,1.39319 -12.5952,2.10328c-24.12065,3.95416 -48.10522,6.1782 -72.56372,5.95101c-2.7035,-0.01897 -5.40699,-0.03796 -8.19241,-0.05749c-2.9485,-0.03661 -2.9485,-0.03661 -5.95659,-0.07393c3.96097,-18.37061 10.23064,-35.29895 17.49751,-52.60316c2.92642,-7.08209 5.6722,-14.2292 8.39785,-21.38811c0.80862,-2.12317 0.80862,-2.12317 1.63358,-4.28921c3.11062,-8.24194 6.0219,-16.52181 8.77796,-24.88674c3.59716,-10.86023 7.82322,-21.41814 12.19946,-31.98974c4.7753,-11.59292 9.02557,-23.3227 13.23707,-35.12646c1.79036,-4.88394 3.66155,-9.62493 5.79808,-14.3662c2.82384,-6.44527 5.03619,-12.95324 7.26742,-19.61337c3.95593,-11.45886 8.23746,-22.80428 12.47945,-34.16285c1.62529,-4.35349 3.24479,-8.70905 4.86374,-13.06481c1.03413,-2.77507 2.0686,-5.55001 3.10343,-8.32483c0.93225,-2.50036 1.86451,-5.00073 2.82502,-7.57687c2.29733,-5.96794 2.29733,-5.96794 4.43303,-10.17348c1.42731,-7.00217 1.42731,-7.00217 0,-14.7194c-3.33423,-3.7452 -6.92272,-6.52553 -10.95381,-9.52818c-3.80154,-2.9381 -6.59786,-5.82346 -9.6023,-9.52818c-6.39132,-7.78318 -13.04863,-14.62888 -21.09003,-20.76487c-6.2431,-5.07115 -10.90477,-10.78678 -16.01775,-16.9536c-8.06004,-9.14306 -8.06004,-9.14306 -19.22129,-12.61663c-5.88084,1.82407 -5.88084,1.82407 -12.01331,4.73124c-8.08394,3.51173 -15.90803,6.62848 -24.42706,8.93678c-7.8315,2.17134 -14.93076,4.99589 -22.29136,8.41109c-8.90078,4.11899 -17.56453,7.11982 -27.01327,9.73354c-15.98496,4.80778 -31.56004,11.10686 -47.1272,17.08502c-15.99171,6.13999 -32.11532,11.81856 -48.33481,17.34324c-16.0035,5.45655 -31.77306,11.28408 -47.44631,17.60712c-39.40323,15.68705 -39.40323,15.68705 -59.6661,19.18779c-1.69938,-50.28812 -2.59782,-119.91791 29.89979,-161.91341c1.40956,-2.34196 2.81912,-4.68392 4.2714,-7.09685c18.89013,-25.35703 57.51729,-37.63608 87.75138,-42.31315c9.88278,-1.31772 19.77737,-2.31101 29.71209,-3.15929c1.60778,-0.14536 3.21555,-0.29071 4.87206,-0.44047c61.09029,-5.1622 124.25702,-3.20412 185.20519,2.54324z"/>
  <path stroke="null" id="svg_2" fill="#ADCFC8" d="m283.37008,182.99999c12.12802,0.36873 17.55384,7.2306 25.396,15.56841c1.0672,1.18179 2.13438,2.36359 3.23392,3.58119c-3.72692,13.53554 -10.34757,24.68858 -17.44636,36.65354c-2.27899,3.8793 -4.55609,7.75971 -6.83129,11.64124c-1.12332,1.91077 -2.24664,3.82157 -3.404,5.79024c-3.28366,5.67039 -6.45874,11.38949 -9.60622,17.13694c-4.45682,8.10627 -9.21161,15.90384 -14.30563,23.62844c-6.20687,9.64628 -11.16994,18.89343 -15.20965,29.62205c-1.57465,0 -3.14929,0 -4.77165,0c-0.32292,1.27745 -0.64584,2.55489 -0.97857,3.87107c-4.03596,14.01488 -10.23443,24.37101 -19.01206,35.96162c-3.95136,5.7699 -6.1221,11.10809 -8.63929,17.61613c-2.85288,5.32981 -5.79403,10.61254 -8.79774,15.85827c-0.83712,1.4626 -1.67421,2.92517 -2.53668,4.43208c-6.58443,11.414 -13.54725,22.54912 -20.77172,33.56792c-4.05994,6.59984 -7.40341,13.40039 -10.83874,20.34646c-2.89317,5.10928 -5.82571,10.19633 -8.79774,15.25984c-1.48546,2.53639 -2.9709,5.07278 -4.50139,7.68603c-1.12256,1.90692 -2.24509,3.81384 -3.40166,5.77854c-9.55607,-1.52493 -19.0931,-3.14611 -28.62992,-4.7874c-2.68489,-0.39343 -2.68489,-0.39343 -5.42403,-0.79478c-18.53301,-3.24153 -35.10544,-12.47738 -51.83581,-20.74853c0,-1.57984 0,-3.15969 0,-4.7874c-2.43579,-0.6665 -2.43579,-0.6665 -4.92077,-1.34646c-24.26655,-11.91431 -36.09343,-38.03241 -45.01385,-62.18011c-4.93277,-16.00318 -7.32523,-32.24365 -7.32523,-48.97737c4.10997,-3.82432 4.10997,-3.82432 9.69242,-7.33071c2.69873,-1.74491 2.69873,-1.74491 5.452,-3.52511c6.32802,-3.50639 6.32802,-3.50639 14.35223,-6.90058c9.13003,-3.98482 17.24428,-8.70098 25.6756,-13.96014c11.37123,-6.97927 22.79989,-13.65058 34.59449,-19.89764c18.52595,-9.85506 36.42253,-20.69972 53.77429,-32.52068c6.76606,-4.43208 6.76606,-4.43208 14.96734,-7.87303c6.63355,-2.91905 11.0501,-5.34858 16.70079,-9.5748c7.09941,-5.3066 14.2843,-9.24392 22.24597,-13.09055c13.84679,-6.78866 27.72918,-13.81766 40.08375,-23.11417c9.91359,-7.43558 24.1748,-17.80315 36.8312,-17.80315c0,-1.57984 0,-3.15969 0,-4.7874z"/>
 </g>
</svg>